<svg width="555" height="90" xmlns="http://www.w3.org/2000/svg" class="iconLeftSlogan">
 <!---->
 <!---->
 <!---->
 <defs>
  <linearGradient y2="0%" x2="100%" y1="0%" x1="0%" id="d1388d43-3c7e-40eb-bd62-a1856205d1dc" gradientTransform="rotate(25)">
   <stop stop-color=" rgb(1, 100, 139)" offset="0%"/>
   <stop stop-color=" rgb(91, 208, 164)" offset="100%"/>
  </linearGradient>
 </defs>
 <!---->
 <g>
  <title>background</title>
  <rect fill="none" id="canvas_background" height="402" width="582" y="-1" x="-1"/>
 </g>
 <g>
  <title>Layer 1</title>
  <g transform="matrix(6.23700631120257,0,0,6.23700631120257,147.08155330557264,-12.286903326766982) " fill="#000000" id="cc0077ef-c110-4f49-874e-2501fe801688">
   <path id="svg_1" d="m1.75,7.055c0,-0.62 0.36,-1.57 2.46,-1.57c1.7,0 2.48,0.74 2.59,1.67l1.08,0c-0.08,-1.39 -1.2,-2.65 -3.67,-2.65c-2.32,0 -3.48,1.05 -3.48,2.56c0,3.18 6.34,2.03 6.34,4.3c0,1.09 -0.98,1.64 -2.55,1.64c-1.61,0 -2.91,-0.55 -2.98,-1.89l-1.09,0c0.14,1.66 1.26,2.88 4,2.88c2.28,0 3.67,-0.95 3.67,-2.67c0,-3.24 -6.37,-2.12 -6.37,-4.27zm13.5,2.64c0,-1.24 0.85,-1.97 1.89,-1.97c0.98,0 1.73,0.78 1.73,1.96l0,4.2l1.05,0l0,-4.23c0,-1.76 -1.24,-2.88 -2.59,-2.88c-1.38,0 -2.13,0.94 -2.41,1.41c-0.44,-0.89 -1.3,-1.41 -2.22,-1.41c-1.14,0 -1.81,0.61 -2.13,1.17l0,-1.06l-1.05,0l0,7l1.05,0l0,-4.19c0,-1.24 0.85,-1.97 1.89,-1.97c0.98,0 1.74,0.78 1.74,1.96l0,4.2l1.05,0l0,-4.19zm9.38,-2.92c-2.05,0 -3.39,1.61 -3.39,3.61c0,2 1.34,3.61 3.39,3.61c1.16,0 1.98,-0.47 2.5,-1.23l0,1.12l1.05,0l0,-7l-1.05,0l0,1.13c-0.52,-0.75 -1.34,-1.24 -2.5,-1.24zm0.14,6.27c-1.56,0 -2.48,-1.22 -2.48,-2.66c0,-1.44 0.92,-2.66 2.48,-2.66c1.55,0 2.42,1.22 2.42,2.66c0,1.44 -0.87,2.66 -2.42,2.66zm8.86,-6.27c-1.74,0 -2.44,1.36 -2.58,1.83l0,-1.72l-1.05,0l0,7l1.05,0l0,-3.08c0,-1.54 0.95,-2.98 2.52,-2.98l0.13,0l0,-1.05l-0.07,0zm3.01,7.11l0,-6.08l1.61,0l0,-0.92l-1.61,0l0,-2.51l-1.05,0l0,2.51l-1.43,0l0,0.92l1.43,0l0,6.08l1.05,0zm9.56,-9.27l-7.52,0l0,1.01l3.24,0l0,8.26l1.05,0l0,-8.26l3.23,0l0,-1.01zm3.78,2.16c-1.74,0 -2.44,1.36 -2.58,1.83l0,-1.72l-1.05,0l0,7l1.05,0l0,-3.08c0,-1.54 0.96,-2.98 2.52,-2.98l0.13,0l0,-1.05l-0.07,0zm4.14,6.27c-1.41,0 -2.32,-0.99 -2.47,-2.24l5.86,0l0,-0.42c0,-2 -1.33,-3.61 -3.47,-3.61c-2.14,0 -3.47,1.61 -3.47,3.61c0,2 1.4,3.61 3.54,3.61c1.67,0 2.7,-0.87 3.19,-2.13l-1.15,0c-0.37,0.7 -1.05,1.18 -2.03,1.18zm-0.08,-5.32c1.34,0 2.18,0.91 2.38,2.1l-4.76,0c0.2,-1.19 1.04,-2.1 2.38,-2.1zm7.88,5.32c-1.41,0 -2.32,-0.99 -2.48,-2.24l5.87,0l0,-0.42c0,-2 -1.33,-3.61 -3.47,-3.61c-2.14,0 -3.47,1.61 -3.47,3.61c0,2 1.4,3.61 3.54,3.61c1.66,0 2.7,-0.87 3.19,-2.13l-1.15,0c-0.38,0.7 -1.05,1.18 -2.03,1.18zm-0.08,-5.32c1.34,0 2.18,0.91 2.38,2.1l-4.76,0c0.19,-1.19 1.03,-2.1 2.38,-2.1z"/>
  </g>
  <g fill="url(#d1388d43-3c7e-40eb-bd62-a1856205d1dc)" transform="matrix(1.5840026006878636,0,0,1.5840026006878636,-6.2801170309538605,-30.435892570750426) " id="148cd885-b023-4850-89cb-c728575c9ecc">
   <path id="svg_2" d="m57.1,39.2c-11.3,6.2 -6.8,17.3 -6.8,17.3s-1.4,1.4 -2.8,3.9c-1.1,-4.3 -3,-7.1 -3,-7.1s8.7,-12.9 -4.1,-23.7c-12.9,-10.9 -36.4,-10 -36.4,-10s2.9,26.5 14.7,37.2c11.8,10.7 22.2,1 22.2,1c5.1,5.7 2,15.3 2,15.3l4.5,3.3s0.5,-1.8 0.8,-4.6c0,0 0.1,-1.6 0.3,-3.5c0.3,-2.5 1.1,-5.9 3.8,-7.9c0,0 6.4,9 16.9,2.7c10.5,-6.2 16.8,-25.8 16.8,-25.8s-17.6,-4.3 -28.9,1.9zm-15.3,15.2c-1.3,1.3 -3.7,-0.2 -8,-8.4c-6.2,-11.9 -19,-15.5 -19,-15.5c8.5,1.4 16,6.8 21.1,13.4c4.3,5.7 7.1,9.3 5.9,10.5zm18,-2.7c-5.2,6.2 -7.3,6.9 -7.9,5.5c-0.6,-1.4 2.3,-3.8 7,-7.7c5.4,-4.6 12.2,-7.6 18.7,-7c-0.1,-0.1 -10.3,0.3 -17.8,9.2z"/>
  </g>
 </g>
</svg>