<svg width="961.84535" height="436.79521" xmlns="http://www.w3.org/2000/svg">
 <title>shared_workspace</title>

 <g>
  <title>background</title>
  <rect fill="none" id="canvas_background" height="402" width="582" y="-1" x="-1"/>
 </g>
 <g>
  <title>Layer 1</title>
  <path id="svg_1" fill="#01648b" d="m470.791862,363.13609c14.37595,15.42642 15.119,38.1 15.119,38.1s-22.565,-2.33763 -36.94091,-17.764s-15.119,-38.1 -15.119,-38.1s22.56495,2.33758 36.94091,17.764z"/>
  <path id="svg_2" fill="#5bd0a4" d="m516.048882,387.215c-15.42642,14.376 -38.1,15.119 -38.1,15.119s2.33763,-22.56495 17.764,-36.94091s38.1,-15.119 38.1,-15.119s-2.33753,22.56491 -17.764,36.94091z"/>
  <path id="svg_3" fill="#333333" d="m512.214922,433l-56.73914,0a5.8034,5.8034 0 0 1 -5.21862,-3.26461l-12.35345,-25.3932a5.8034,5.8034 0 0 1 5.21864,-8.34219l81.446,0a5.8034,5.8034 0 0 1 5.21862,8.34219l-12.35345,25.3932a5.8034,5.8034 0 0 1 -5.2186,3.26461z"/>
  <circle id="svg_4" fill="#ffb8b8" r="47.24351" cy="76.06979" cx="767.02733"/>
  <path id="svg_5" fill="#ffb8b8" d="m731.765852,99.69155s8.90094,67.09951 -4.7928,74.631s81.47795,8.21627 81.47795,8.21627s-21.22534,-58.19851 -11.63973,-76.00045l-65.04542,-6.84682z"/>
  <path id="svg_6" fill="#d0cde1" d="m877.946112,182.87826l-7.915,36.04167l-16.73591,76.25281l-0.50113,4.176l-5.77572,48.34458l-3.84186,32.11625l-2.57625,21.5736c-15.663,8.04992 -27.01516,13.60716 -27.01516,13.60716s-0.97654,-4.89549 -2.55056,-11.15941c-10.99237,3.29579 -31.33243,8.76307 -48.56947,9.85521c6.27678,6.99633 9.16139,13.56862 5.24883,18.41917c-11.8083,14.62221 -60.55768,-16.01 -77.60838,-27.43277a46.15393,46.15393 0 0 0 -0.44973,8.26194l-13.04823,-10.03512l1.29134,-23.08978l2.17793,-39.0676l2.73686,-48.99351a51.43841,51.43841 0 0 1 -2.16511,-6.44379c-3.996,-14.21107 -8.84656,-42.58827 -12.56639,-66.38474c-2.99381,-19.15154 -5.2424,-35.33494 -5.71781,-38.77849c-0.06427,-0.44972 -0.09638,-0.681 -0.09638,-0.681l72.231,-31.91713c5.13324,11.90468 29.10318,15.48315 29.10318,15.48315c19.85822,-1.36843 35.42486,-11.84041 35.42486,-11.84041l78.91909,31.69221z"/>
  <path id="svg_7" fill="#ffb8b8" d="m819.065232,401.29965s-3.05809,1.0472 -8.03067,2.53127c-10.99237,3.29579 -31.33243,8.76307 -48.56947,9.85521c-14.8407,0.95086 -27.38137,-1.33627 -29.67493,-11.01805c-0.983,-4.16313 0.41118,-7.58738 3.45,-10.40133c9.07144,-8.40973 32.76513,-11.42284 51.5569,-12.45718c5.30667,-0.28911 10.215,-0.424 14.301,-0.47541c6.93849,-0.09 11.48707,0.05141 11.48707,0.05141l0.10921,0.424l5.37089,21.49008z"/>
  <path id="svg_8" fill="#2f2e41" d="m727.725112,31.38179l-8.83338,-3.5364s18.46975,-20.33416 44.167,-18.5659l-7.22751,-7.95692s17.66676,-7.07268 33.72744,11.49321c8.44279,9.75966 18.21118,21.23169 24.30075,34.15476l9.45994,0l-3.94822,8.69355l13.8188,8.69355l-14.18358,-1.56155a48.58061,48.58061 0 0 1 0.3849,14.41987a18.65731,18.65731 0 0 1 -6.83212,12.20528l0,0s-10.955,-22.67579 -10.955,-26.21219l0,8.841s-8.83338,-7.95681 -8.83338,-13.26134l-4.81816,6.18866l-2.40908,-9.72508l-29.71221,9.72508l4.81815,-7.95682l-18.46975,2.65227l7.22751,-9.72509s-20.87883,11.49321 -21.682,21.2183c-0.80293,9.72494 -6.91426,18.94 -6.91426,18.94s-16.37381,-45.4629 6.91416,-58.72424z"/>
  <path id="svg_9" fill="#d0cde1" d="m929.297422,348.57348c-4.812,5.21672 -16.73591,13.07391 -31.19111,21.58c-5.37734,3.1609 -11.10162,6.41815 -16.9415,9.6561c-13.93482,7.72873 -28.525,15.38677 -40.56453,21.5736c-15.663,8.04992 -27.01516,13.60716 -27.01516,13.60716s-0.97654,-4.89549 -2.55056,-11.15941c-2.10723,-8.384 -5.28095,-19.22224 -8.5896,-24.02135c-0.11564,-0.16705 -0.23128,-0.32123 -0.34691,-0.47541c-0.96368,-1.26565 -1.93379,-2.00445 -2.891,-2.00445l47.8113,-29.6364l20.66133,-12.81052l-14.88568,-35.53411l-18.66965,-44.57343l11.26866,-35.85533l11.32646,-36.04167l21.22665,0s7.02845,15.3418 16.01636,36.73553c1.34275,3.19941 2.73043,6.53374 4.14384,9.97729c18.48978,44.97174 41.54103,107.77158 31.1911,118.9824z"/>
  <path id="svg_10" fill="#ffb8b8" d="m767.713922,432.1053c-11.8083,14.62221 -60.55768,-16.01 -77.60838,-27.43277c-3.7134,-2.48629 -5.92344,-4.06031 -5.92344,-4.06031l15.59879,-20.80265l4.94047,-6.58515s4.42008,2.345 10.95382,6.16115c0.23771,0.14132 0.47541,0.28268 0.71955,0.424c5.63433,3.30865 12.70775,7.63235 19.8454,12.45718c9.84882,6.66224 19.80685,14.26248 26.225,21.41938c6.27674,6.99633 9.16135,13.56862 5.24879,18.41917z"/>
  <path id="svg_11" fill="#d0cde1" d="m715.675182,379.38557a30.69786,30.69786 0 0 0 -5.20385,0.424c-14.77,2.5377 -19.12586,15.90716 -20.36579,24.863a46.15393,46.15393 0 0 0 -0.44973,8.26194l-13.04823,-10.03512l-4.75413,-3.65556c-11.44213,-3.98965 -21.63787,-11.07589 -30.478,-19.43422a153.2131,153.2131 0 0 1 -20.52639,-24.34261a214.67612,214.67612 0 0 1 -15.88148,-27.24a20.03409,20.03409 0 0 1 -0.27625,-16.99291l16.15773,-36.00951l23.61659,-52.62982q0.26016,-1.87914 0.57176,-3.67482c4.68351,-26.85455 17.23061,-38.77849 17.23061,-38.77849l9.58543,0l6.41168,38.77849l7.9664,48.17759l-5.58293,18.20715l-12.90044,42.04855l12.32869,13.38877l35.59833,38.64357z"/>
  <path id="svg_12" fill="#1c3ed3" d="m726.523862,267.136l8.19442,9.56022c3.04445,-0.58046 6.22372,-1.26259 9.49825,-2.02864l-2.35359,-7.53158l5.75478,6.71392c34.69082,-8.53229 77.68983,-25.12082 77.68983,-25.12082s-46.42186,3.40385 -81.08294,-4.16863c-15.33585,-3.35046 -31.1145,4.25182 -37.4077,18.63269c-3.65786,8.35873 -3.08339,15.60054 9.88993,15.60054a85.688,85.688 0 0 0 13.07567,-1.2299l-3.25865,-10.4278z"/>
  <path id="svg_13" fill="#333333" d="m913.332462,424.26736l0,3.8997a8.57062,8.57062 0 0 1 -0.58465,3.12875a8.79588,8.79588 0 0 1 -0.62316,1.2849a8.633,8.633 0 0 1 -7.42037,4.2145l-286.88763,0a8.6329,8.6329 0 0 1 -7.42033,-4.2145a8.79181,8.79181 0 0 1 -0.62316,-1.2849a8.57062,8.57062 0 0 1 -0.58465,-3.12875l0,-3.8997a8.62584,8.62584 0 0 1 8.62814,-8.62814l16.53675,0l0,-1.81816a0.35918,0.35918 0 0 1 0.35977,-0.35977l8.62818,0a0.35918,0.35918 0 0 1 0.35977,0.35977l0,1.81816l5.39016,0l0,-1.81816a0.35918,0.35918 0 0 1 0.35977,-0.35977l8.62819,0a0.35918,0.35918 0 0 1 0.35977,0.35977l0,1.81816l5.39659,0l0,-1.81816a0.35918,0.35918 0 0 1 0.35977,-0.35977l8.62814,0a0.35919,0.35919 0 0 1 0.35978,0.35977l0,1.81816l5.39019,0l0,-1.81816a0.35918,0.35918 0 0 1 0.35977,-0.35977l8.62815,0a0.35918,0.35918 0 0 1 0.35977,0.35977l0,1.81816l5.3902,0l0,-1.81816a0.35918,0.35918 0 0 1 0.35977,-0.35977l8.62821,0a0.35918,0.35918 0 0 1 0.35977,0.35977l0,1.81816l5.39662,0l0,-1.81816a0.35919,0.35919 0 0 1 0.35978,-0.35977l8.62814,0a0.35919,0.35919 0 0 1 0.35978,0.35977l0,1.81816l5.39019,0l0,-1.81816a0.35918,0.35918 0 0 1 0.35977,-0.35977l67.58612,0a0.35919,0.35919 0 0 1 0.35978,0.35977l0,1.81816l5.39658,0l0,-1.81816a0.35918,0.35918 0 0 1 0.35977,-0.35977l8.62819,0a0.36334,0.36334 0 0 1 0.35977,0.35977l0,1.81816l5.39016,0l0,-1.81816a0.35918,0.35918 0 0 1 0.35977,-0.35977l8.62815,0a0.35919,0.35919 0 0 1 0.35981,0.35977l0,1.81816l5.39015,0l0,-1.81816a0.35919,0.35919 0 0 1 0.35978,-0.35977l8.62814,0a0.35919,0.35919 0 0 1 0.35978,0.35977l0,1.81816l5.39662,0l0,-1.81816a0.35918,0.35918 0 0 1 0.35977,-0.35977l8.62815,0a0.35786,0.35786 0 0 1 0.35334,0.35977l0,1.81816l5.39663,0l0,-1.81816a0.35918,0.35918 0 0 1 0.35977,-0.35977l8.62815,0a0.35918,0.35918 0 0 1 0.35977,0.35977l0,1.81816l5.39019,0l0,-1.81816a0.35919,0.35919 0 0 1 0.35978,-0.35977l8.62814,0a0.35918,0.35918 0 0 1 0.35977,0.35977l0,1.81816l25.1649,0a8.62585,8.62585 0 0 1 8.62813,8.62814z"/>
  <path id="svg_14" fill="#333333" d="m890.232562,260.0373l-106.93183,0l0,-2.204l-48.487,0l0,2.204l-107.37267,0a7.23313,7.23313 0 0 0 -7.23313,7.23314l0,146.42256a7.23315,7.23315 0 0 0 7.23313,7.23316l262.7915,0a7.23315,7.23315 0 0 0 7.23313,-7.23316l0,-146.42256a7.23313,7.23313 0 0 0 -7.23313,-7.23314z"/>
  <circle id="svg_15" stroke-width="2" stroke-miterlimit="10" stroke="#d0cde1" fill="none" r="16.06134" cy="311.15699" cx="759.04723"/>
  <circle id="svg_16" fill="#d0cde1" r="16.06134" cy="316.93907" cx="753.9076"/>
  <circle id="svg_17" fill="#2f2e41" r="23.38258" cy="165.70501" cx="282.31137"/>
  <path id="svg_18" fill="#2f2e41" d="m288.825822,142.96607a23.38583,23.38583 0 0 1 20.58382,34.47973a23.377,23.377 0 1 0 -38.83913,-25.68688a23.32489,23.32489 0 0 1 18.25531,-8.79285z"/>
  <circle id="svg_19" fill="#2f2e41" r="68.68632" cy="96.96916" cx="238.61766"/>
  <path id="svg_20" fill="#2f2e41" d="m184.710062,54.35257a68.674,68.674 0 0 1 95.19052,-7.2019c-0.56166,-0.53391 -1.11739,-1.07215 -1.701,-1.591a68.68632,68.68632 0 0 0 -91.27085,102.66876c0.58363,0.51883 1.18326,1.00769 1.77929,1.50294a68.674,68.674 0 0 1 -3.99796,-95.3788z"/>
  <circle id="svg_21" fill="#a0616a" r="44.23864" cy="120.83474" cx="238.03557"/>
  <path id="svg_22" fill="#a0616a" d="m206.602852,134.80484s5.82087,53.552 -3.49253,59.37292s53.55205,13.9701 53.55205,13.9701s-9.3134,-58.20875 13.9701,-73.343l-64.02962,-0.00002z"/>
  <path id="svg_23" fill="#d0cde1" d="m262.483242,184.86436s17.335,-8.095 -7.631,-5.21169s-46.50585,-8.17632 -46.50585,-8.17632s-7.56447,-7.56714 -8.72864,0.58209s3.49252,23.28349 -22.11932,25.61184s-48.89535,-4.6567 -58.20874,12.80593s-4.6567,93.134 -4.6567,93.134s17.46262,62.86545 31.43272,72.17884s136.20845,-3.49252 136.20845,-3.49252l34.92525,-62.86544l0,-73.343s-4.6567,-25.61184 -37.2536,-18.6268c0,0 -20.95514,-4.65669 -19.791,-15.13427s2.32843,-17.46266 2.32843,-17.46266z"/>
  <path id="svg_24" fill="#2f2e41" d="m150.685842,420.27771c0.71954,-3.13517 1.20138,-4.90835 1.20138,-4.90835l-0.37259,-2.55052l-3.83547,-26.04506l-1.61256,-10.986c13.96693,-5.82062 17.46188,-32.59808 17.46188,-32.59808l0.52682,-0.3148l2.38351,-1.42627l0,-0.00639l8.55754,-5.13324l0.17344,-0.10277l3.4564,2.3l7.022,4.68348a82.57225,82.57225 0 0 0 65.02274,14.8985a71.58121,71.58121 0 0 0 15.30325,-4.42009l16.93506,-5.64715l0.52682,-0.17348l0.52039,0.0771l9.93234,1.50335l0.17987,0.03212l0.82236,0.12207l-2.3,15.90072l-3.33433,23.109c8.80805,4.66422 16.63956,13.42729 23.4881,24.22694q2.27427,3.58485 4.40722,7.45887c1.85027,3.34077 3.617,6.81642 5.30024,10.37564c0.20559,0.424 0.40475,0.85448 0.60391,1.28491c0.64888,1.39411 1.29134,2.80109 1.91454,4.21449l-177.36863,0c0.23127,-1.41983 0.46255,-2.7754 0.68743,-4.0796a0.995,0.995 0 0 0 0.02568,-0.13489c0.08353,-0.43686 0.16062,-0.86091 0.23128,-1.28491c0.78381,-4.24016 1.54189,-7.78005 2.13938,-10.37559z"/>
  <path id="svg_25" fill="#2f2e41" d="m143.737412,196.50611s12.80594,23.28349 8.14922,52.38789s13.9701,101.28321 13.9701,101.28321l13.9701,-3.49253s-9.3134,-60.53709 -6.98505,-74.50719s2.32835,-68.68631 -9.3134,-75.67136s-19.79097,-0.00002 -19.79097,-0.00002z"/>
  <path id="svg_26" fill="#2f2e41" d="m279.127002,220.70233l4.89348,128.89277l9.3134,5.82087s13.388,-141.44724 6.403,-141.44724l-14.21275,0a6.40554,6.40554 0 0 0 -6.39713,6.7336z"/>
  <circle id="svg_27" fill="#6c63ff" r="5.82087" cy="341.44588" cx="172.25969"/>
  <circle id="svg_28" fill="#6c63ff" r="5.82087" cy="347.26675" cx="288.67718"/>
  <polygon id="svg_29" fill="#2f2e41" points="200.2 65.536 200.2 109.775 210.445 109.775 223.483 95.805 221.737 109.775 267.024 109.775 264.23 95.805 269.818 109.775 277.035 109.775 277.035 65.536 200.2 65.536"/>
  <ellipse id="svg_30" fill="#a0616a" ry="6.40296" rx="3.49252" cy="111.52134" cx="193.21484"/>
  <ellipse id="svg_31" fill="#a0616a" ry="6.40296" rx="3.49252" cy="111.52134" cx="282.8563"/>
  <path id="svg_32" fill="#a0616a" d="m306.721892,346.68466s-52.97,-9.89548 -56.46248,7.56714s58.79083,9.89549 58.79083,9.89549l-2.32835,-17.46263z"/>
  <path id="svg_33" fill="#d0cde1" d="m305.557712,226.77465s126.89506,101.28322 103.61156,125.73089s-111.76078,17.46262 -111.76078,17.46262l5.82087,-29.10437l51.2237,-5.82088l-25.61185,-25.61184l-23.2835,2.32835l0,-84.98477z"/>
  <path id="svg_34" fill="#a0616a" d="m118.125562,395.58l16.29845,12.80592s11.64175,36.08942 29.10437,25.61185s-16.29845,-47.73117 -16.29845,-47.73117l-19.791,-6.98505l-9.31337,16.29845z"/>
  <path id="svg_35" fill="#d0cde1" d="m134.424012,208.14786l-16.2545,4.89151s-112.96891,83.58577 -117.62561,106.86927s22.11932,36.08942 22.11932,36.08942l101.28321,47.73117l10.47758,-27.9402l-47.73117,-24.44767s3.49252,-6.98505 -10.47757,-8.14922s-16.29845,-16.29845 -16.29845,-16.29845s27.94019,-43.07447 43.07447,-33.76107s19.791,16.29845 19.791,16.29845l11.64172,-101.28321z"/>
  <path id="svg_36" fill="#333333" d="m366.261122,424.26736l0,3.8997a8.5704,8.5704 0 0 1 -0.58462,3.12875a8.79,8.79 0 0 1 -0.6232,1.2849a8.63285,8.63285 0 0 1 -7.42033,4.2145l-286.88762,0a8.6329,8.6329 0 0 1 -7.42033,-4.2145a8.794,8.794 0 0 1 -0.6232,-1.2849a8.57123,8.57123 0 0 1 -0.58462,-3.12875l0,-3.8997a8.62585,8.62585 0 0 1 8.62815,-8.62814l16.53675,0l0,-1.81816a0.35918,0.35918 0 0 1 0.35977,-0.35977l8.62815,0a0.35918,0.35918 0 0 1 0.35977,0.35977l0,1.81816l5.39019,0l0,-1.81816a0.35919,0.35919 0 0 1 0.35978,-0.35977l8.62814,0a0.35918,0.35918 0 0 1 0.35977,0.35977l0,1.81816l5.39668,0l0,-1.81816a0.35918,0.35918 0 0 1 0.35977,-0.35977l8.62815,0a0.35918,0.35918 0 0 1 0.35977,0.35977l0,1.81816l5.3902,0l0,-1.81816a0.35918,0.35918 0 0 1 0.35977,-0.35977l8.62815,0a0.35918,0.35918 0 0 1 0.35977,0.35977l0,1.81816l5.39019,0l0,-1.81816a0.35918,0.35918 0 0 1 0.35977,-0.35977l8.62815,0a0.35918,0.35918 0 0 1 0.35977,0.35977l0,1.81816l5.39654,0l0,-1.81816a0.35918,0.35918 0 0 1 0.35977,-0.35977l8.62823,0a0.35918,0.35918 0 0 1 0.35977,0.35977l0,1.81816l5.3902,0l0,-1.81816a0.35918,0.35918 0 0 1 0.35977,-0.35977l67.58612,0a0.35918,0.35918 0 0 1 0.35977,0.35977l0,1.81816l5.39659,0l0,-1.81816a0.35918,0.35918 0 0 1 0.35977,-0.35977l8.62815,0a0.36332,0.36332 0 0 1 0.35977,0.35977l0,1.81816l5.39019,0l0,-1.81816a0.35919,0.35919 0 0 1 0.35978,-0.35977l8.62812,0a0.35918,0.35918 0 0 1 0.35977,0.35977l0,1.81816l5.3902,0l0,-1.81816a0.35918,0.35918 0 0 1 0.35977,-0.35977l8.62815,0a0.35918,0.35918 0 0 1 0.35977,0.35977l0,1.81816l5.39663,0l0,-1.81816a0.35918,0.35918 0 0 1 0.35977,-0.35977l8.62814,0a0.35787,0.35787 0 0 1 0.35335,0.35977l0,1.81816l5.39662,0l0,-1.81816a0.35918,0.35918 0 0 1 0.35977,-0.35977l8.62815,0a0.35918,0.35918 0 0 1 0.35977,0.35977l0,1.81816l5.3902,0l0,-1.81816a0.35918,0.35918 0 0 1 0.35977,-0.35977l8.62817,0a0.35918,0.35918 0 0 1 0.35977,0.35977l0,1.81816l25.16489,0a8.62581,8.62581 0 0 1 8.62811,8.62814z"/>
  <path id="svg_37" fill="#333333" d="m343.160102,260.03428l-106.93183,0l0,-2.204l-48.48705,0l0,2.204l-107.37262,0a7.23313,7.23313 0 0 0 -7.23313,7.23313l0,146.42259a7.23315,7.23315 0 0 0 7.23313,7.23316l262.7915,0a7.23315,7.23315 0 0 0 7.23313,-7.23316l0,-146.42259a7.23313,7.23313 0 0 0 -7.23313,-7.23313z"/>
  <circle id="svg_38" stroke-width="2" stroke-miterlimit="10" stroke="#d0cde1" fill="none" r="16.06134" cy="311.15396" cx="211.97477"/>
  <circle id="svg_39" fill="#d0cde1" r="16.06134" cy="316.93605" cx="206.83514"/>
  <rect id="svg_40" fill="#333333" height="2" width="950" y="432" x="11.84535"/>
 </g>
</svg>